<?xml version="1.0"?>
<svg xmlns="http://www.w3.org/2000/svg" height="512px" viewBox="0 0 64 64" width="512px" class=""><g><g id="Dress"><path d="m63.4453 22.1225-5.4353-5.6943a3.0147 3.0147 0 0 0 -2.17-.9282h-4.82a2.9923 2.9923 0 0 0 -2.5166 1.3662l-3.7637 5.7973-3.7637-5.7978a2.9929 2.9929 0 0 0 -2.5171-1.3657h-4.8212a3.017 3.017 0 0 0 -2.1709.9287l-5.4346 5.6938a2.001 2.001 0 0 0 .9453 3.3169l5.95 1.5414a27.9816 27.9816 0 0 0 2.472 8.9806l-.001 3.5886a27.1582 27.1582 0 0 0 -1.9728 16.5363l1.375 7.1035a.9994.9994 0 0 0 .9815.81h10.9787l1.3709-7.9727a35.3132 35.3132 0 0 0 -1.3393-17.2771h-9.3941l.001-2h14.68l-.001 2h-3.1946a37.3184 37.3184 0 0 1 1.2187 17.6162l-1.3125 7.6338h4.9065a.9993.9993 0 0 0 .9814-.81l1.375-7.103a27.1651 27.1651 0 0 0 -1.9748-16.537l.0009-3.5831a27.7573 27.7573 0 0 0 2.4726-8.9869l5.9484-1.5406a2 2 0 0 0 .9453-3.3169z" fill="#c4a2fc" data-original="#C4A2FC" class="active-path" style="fill:#86C4BA" data-old_color="#c4a2fc"/><g fill="none"><path d="m11.0232 2.5322a.5318.5318 0 1 0 -1.0635 0v4.3687l1.0635-.5684z"/><path d="m28.5271 2.5322a.5318.5318 0 1 0 -1.0635 0v3.8l1.0635.5684z"/><path d="m11.272 22.813h15.942v1.085h-15.942z"/><path d="m27.362 20.813 1.8086-11.3008-.1117-.06-.0035-.0013-2.6281-1.4043-.4237-.2266a3.02 3.02 0 0 0 -2.9326.0591l-3.321 1.9495a.998.998 0 0 1 -1.0117 0l-3.3232-1.95a3.0188 3.0188 0 0 0 -2.9327-.0581l-.27.1442-2.781 1.4865-.0036.0013-.1117.06 1.8086 11.3005z"/><path d="m27.67 25.8984h-16.8539l-8.6474 13.4029a1.0564 1.0564 0 0 0 .4843 1.5487l5.3489 2.2139 4.116-14.7627a1 1 0 1 1 1.9258.5371l-4.59 16.4643a40.3408 40.3408 0 0 0 8.79 1.1653l-.0009-13.6028a1 1 0 0 1 2 0l.0009 13.602a40.6392 40.6392 0 0 0 8.7882-1.1649l-1.9512-6.9986a1 1 0 1 1 1.9258-.5371l1.4772 5.2974 5.349-2.2139a1.0552 1.0552 0 0 0 .4834-1.5483zm-.5273 8.9024a1.01 1.01 0 0 1 -.2695.0371.9994.9994 0 0 1 -.9619-.7319l-1.4688-5.2681a1 1 0 1 1 1.9258-.5371l1.4687 5.268a1 1 0 0 1 -.6947 1.232z"/><path d="m9.42 45.426.001-.005-.002.005z"/></g><path d="m37.9968 38.2173-8.7831-13.614.0009-2.7113 2.0429-12.7675a1 1 0 0 0 -.5156-1.04l-.2148-.1145v-5.4378a2.5318 2.5318 0 1 0 -5.0635 0v3.0248a5.02 5.02 0 0 0 -3.4043.5973l-2.8154 1.6523-2.8174-1.6523a5.021 5.021 0 0 0 -3.4033-.5966v-3.0255a2.5318 2.5318 0 1 0 -5.0635 0v5.4378l-.2149.1148a1 1 0 0 0 -.5156 1.04l2.043 12.7672-.0009 2.7128-8.7833 13.6125a3.0559 3.0559 0 0 0 1.3994 4.48l5.5846 2.3114a1.86 1.86 0 0 0 1.3734 2.2022 42.5894 42.5894 0 0 0 10.3762 1.2841c.0079 0 .0144.0045.0223.0045s.015-.0045.0233-.0047a42.621 42.621 0 0 0 10.378-1.2848 1.8589 1.8589 0 0 0 1.3685-2.2007l5.5847-2.3115a3.0548 3.0548 0 0 0 1.3984-4.48zm-10.5332-35.6851a.5318.5318 0 1 1 1.0635 0v4.3687l-1.0635-.5684zm-17.5039 0a.5318.5318 0 1 1 1.0635 0v3.8l-1.0632.5687zm-.5319 6.92.0036-.0013 2.7807-1.4859.27-.1442a3.0188 3.0188 0 0 1 2.9327.0581l3.3232 1.95a.998.998 0 0 0 1.0117 0l3.3213-1.9495a3.02 3.02 0 0 1 2.9326-.0594l.4237.2263 2.6281 1.4046.0035.0013.1117.06-1.8086 11.3008h-16.2373l-1.8086-11.3008zm17.7868 13.36-.001 1.0854h-15.9424l.001-1.0854zm-17.7946 22.6141h-.0013l.0019-.0054zm27.0172-5.2373a1.0406 1.0406 0 0 1 -.6045.6606l-5.3489 2.2139-1.4772-5.2974a1 1 0 1 0 -1.9258.5371l1.9512 6.9986a40.6392 40.6392 0 0 1 -8.7882 1.1649l-.0009-13.602a1 1 0 0 0 -2 0l.0009 13.6028a40.3408 40.3408 0 0 1 -8.79-1.1653l4.59-16.4643a1 1 0 1 0 -1.9258-.5371l-4.1161 14.7627-5.3489-2.2135a1.0564 1.0564 0 0 1 -.4843-1.5483l8.6474-13.4029h16.8539l8.6465 13.4029a1.0409 1.0409 0 0 1 .1207.8873z" fill="#151a6a" data-original="#151A6A" class="" style="fill:#868686" data-old_color="#151a6a"/><path d="m26.3679 28.3008a1 1 0 1 0 -1.9258.5371l1.4688 5.2681a.9994.9994 0 0 0 .9619.7319 1.01 1.01 0 0 0 .2695-.0371 1 1 0 0 0 .6943-1.232z" fill="#151a6a" data-original="#151A6A" class="" style="fill:#868686" data-old_color="#151a6a"/></g></g> </svg>
