<?xml version="1.0"?>
<svg xmlns="http://www.w3.org/2000/svg" id="line" height="512px" viewBox="0 0 64 64" width="512px" class=""><g><path d="m43.65 21.241a1 1 0 0 0 -1.3 0c-.586.502-14.35 12.459-14.35 26.759a15 15 0 0 0 30 0c0-14.3-13.764-26.257-14.35-26.759zm-.65 36.759a1 1 0 0 1 0-2 8.009 8.009 0 0 0 8-8 1 1 0 0 1 2 0 10.011 10.011 0 0 1 -10 10z" fill="#c4a2fc" data-original="#C4A2FC" class="" style="fill:#86C4BA" data-old_color="#c4a2fc"/><g fill="#151a6a"><path d="m45 16.92v-2a1 1 0 0 0 0-2h-2.153l-.434-2.606a4.785 4.785 0 0 0 -3.76-3.884 2.752 2.752 0 0 1 -2.164-2.164l-.332-1.658a1.976 1.976 0 0 0 -2.15-1.6l-9.95.948a14.614 14.614 0 0 0 -12.843 10.964h-2.214a1 1 0 0 0 0 2v2a3 3 0 0 0 -3 3 24.643 24.643 0 0 0 6.232 16.39 7.78 7.78 0 0 0 5.81 2.61h17.916a7.779 7.779 0 0 0 5.81-2.61 24.643 24.643 0 0 0 6.232-16.39 3 3 0 0 0 -3-3zm-20.753-12.972 9.953-.948.332 1.658a4.746 4.746 0 0 0 3.733 3.732 2.774 2.774 0 0 1 2.179 2.251l.38 2.278h-27.539a12.631 12.631 0 0 1 10.962-8.971zm-13.247 10.972h32v2h-32zm29.273 20.062a5.775 5.775 0 0 1 -4.315 1.938h-17.916a5.775 5.775 0 0 1 -4.315-1.938 22.648 22.648 0 0 1 -5.727-15.062 1 1 0 0 1 1-1h36a1 1 0 0 1 1 1 22.65 22.65 0 0 1 -5.727 15.062z" data-original="#151A6A" class="active-path" style="fill:#868686" data-old_color="#151A6A"/><path d="m32 23.92h-10a3 3 0 0 0 -3 3v2a3 3 0 0 0 3 3h10a3 3 0 0 0 3-3v-2a3 3 0 0 0 -3-3zm1 5a1 1 0 0 1 -1 1h-10a1 1 0 0 1 -1-1v-2a1 1 0 0 1 1-1h10a1 1 0 0 1 1 1z" data-original="#151A6A" class="active-path" style="fill:#868686" data-old_color="#151A6A"/></g></g> </svg>
