<?xml version="1.0"?>
<svg xmlns="http://www.w3.org/2000/svg" id="line" height="512px" viewBox="0 0 64 64" width="512px" class=""><g><path d="m55 34v-10a3 3 0 0 0 -3-3h-5v13h-2v-13h-6v13h-2v-13h-5a3 3 0 0 0 -3 3v10a3 3 0 0 0 -3 3v3a2.994 2.994 0 0 0 2.186 2.873 4.63 4.63 0 0 0 -.339 1.724 4.328 4.328 0 0 0 1.529 3.379 2.07 2.07 0 0 1 -.005 3.239 4.071 4.071 0 0 0 .01 6.364 2.523 2.523 0 0 1 -.006 3.641 1 1 0 0 0 .625 1.78h4.649c2.068-1.869 3.508-2.22 3.508-3.8 0-1.826-2.313-1.923-2.313-4.8 0-2.95 2.31-2.895 2.31-4.8s-2.306-1.8-2.306-4.8a4.055 4.055 0 0 1 .419-1.8h2.582l-.224.179a2.056 2.056 0 0 0 -.777 1.616c0 1.907 2.306 1.821 2.306 4.8 0 2.949-2.31 2.894-2.31 4.8 0 1.879 2.313 1.863 2.313 4.8a4.708 4.708 0 0 1 -2.308 3.805h4.8c2.068-1.869 3.508-2.22 3.508-3.8 0-1.826-2.313-1.923-2.313-4.8 0-2.95 2.31-2.895 2.31-4.8s-2.306-1.8-2.306-4.8a4.055 4.055 0 0 1 .419-1.8h2.582l-.224.179a2.056 2.056 0 0 0 -.777 1.616c0 1.907 2.306 1.821 2.306 4.8 0 2.949-2.31 2.894-2.31 4.8 0 1.879 2.313 1.863 2.313 4.8a4.708 4.708 0 0 1 -2.308 3.805h8.151a.994.994 0 0 0 .625-.22 4.332 4.332 0 0 0 1.529-3.386 4.269 4.269 0 0 0 -1.534-3.384 2.072 2.072 0 0 1 .007-3.239 4.071 4.071 0 0 0 0-6.358 2.315 2.315 0 0 1 -.778-1.816 2.407 2.407 0 0 1 .568-1.6h.583a3 3 0 0 0 3-3v-2.997a3 3 0 0 0 -3-3zm1 6a1 1 0 0 1 -1 1h-26a1 1 0 0 1 -1-1v-3a1 1 0 0 1 1-1h26a1 1 0 0 1 1 1z" fill="#c4a2fc" data-original="#C4A2FC" class="active-path" style="fill:#86C4BA" data-old_color="#c4a2fc"/><g fill="#151a6a"><path d="m37.891 1.683-1.92-.562a3 3 0 0 0 -3.721 2.038l-6.45 22.076a2 2 0 0 0 1.358 2.481l1.92.561-1.139 3.894a8.984 8.984 0 0 0 -6.939 0l-1.138-3.894 1.919-.561a2 2 0 0 0 1.358-2.48l-6.459-22.077a3.008 3.008 0 0 0 -3.722-2.038l-1.919.562a7 7 0 0 0 -4.754 8.683c.033.112 9.584 32.763 9.554 32.659a9.012 9.012 0 0 0 8.626 6.449c6.815 0 8.568-6.375 8.639-6.475l9.541-32.633a7.006 7.006 0 0 0 -4.754-8.683zm-8.257 24.675-1.919-.558 6.454-22.08a1 1 0 0 1 1.241-.679l.96.281zm-16.114-23.317a1 1 0 0 1 1.24.679l6.456 22.08-1.92.562-6.736-23.04zm-4.884 2.927a4.957 4.957 0 0 1 2.032-1.989l8.54 29.205a9.152 9.152 0 0 0 -1.964 1.931.994.994 0 0 1 -1.739-.342l-7.237-24.751a5.287 5.287 0 0 1 .368-4.054zm15.829 41.506a7 7 0 1 1 7-7 7.008 7.008 0 0 1 -7 7zm16.2-37.451-7.237 24.75a.994.994 0 0 1 -1.739.342 9.152 9.152 0 0 0 -1.964-1.931l8.54-29.2a4.969 4.969 0 0 1 2.035 1.987 5.3 5.3 0 0 1 .362 4.052z" data-original="#151A6A" class="" style="fill:#868686" data-old_color="#151A6A"/><path d="m24.465 36.974a3.5 3.5 0 1 0 3.5 3.5 3.5 3.5 0 0 0 -3.5-3.5zm0 5a1.5 1.5 0 1 1 1.5-1.5 1.5 1.5 0 0 1 -1.5 1.5z" data-original="#151A6A" class="" style="fill:#868686" data-old_color="#151A6A"/></g></g> </svg>
