<?xml version="1.0"?>
<svg xmlns="http://www.w3.org/2000/svg" id="line" height="512px" viewBox="0 0 64 64" width="512px" class=""><g><path d="m57 48.723-.03-.019c-.018-.008-.032-.022-.05-.03l-16.807-7.074a5 5 0 0 0 -5.064.7l-2.57 2.057-3.56-2.373a4.973 4.973 0 0 0 -4.8-.409l-15.993 7.107c-.015.007-.025.018-.04.026l-.023.014a79.825 79.825 0 0 0 48.937.001z" fill="#c4a2fc" data-original="#C4A2FC" class="active-path" style="fill:#86C4BA" data-old_color="#c4a2fc"/><path d="m32.532 54.574a82.775 82.775 0 0 1 -23.84-3.574l8.3 6.568a24.949 24.949 0 0 0 31.088 0l8.293-6.568a82.777 82.777 0 0 1 -23.841 3.574z" fill="#c4a2fc" data-original="#C4A2FC" class="active-path" style="fill:#86C4BA" data-old_color="#c4a2fc"/><path d="m23 23.952v-4.184a3 3 0 0 0 -2-2.816v-12.952a3 3 0 0 0 -4.342-2.68l-4 2a2.986 2.986 0 0 0 -1.658 2.68v10.952a3 3 0 0 0 -2 2.816v4.184a3 3 0 0 0 -2 2.816v20a3 3 0 0 0 3 3h12a3 3 0 0 0 3-3v-20a3 3 0 0 0 -2-2.816zm-10-17.526a12.521 12.521 0 0 0 6 .542v9.8h-6zm4.553-3.316a1 1 0 0 1 1.447.89v.949a10.87 10.87 0 0 1 -4.7-.217zm-6.553 16.658a1 1 0 0 1 1-1h8a1 1 0 0 1 1 1v4h-10zm-1 6h12a1 1 0 0 1 1 1v17h-14v-17a1 1 0 0 1 1-1zm12 22h-12a1 1 0 0 1 -1-1v-1h14v1a1 1 0 0 1 -1 1z" fill="#151a6a" data-original="#151A6A" class="" style="fill:#868686" data-old_color="#151a6a"/></g> </svg>
