<?xml version="1.0"?>
<svg xmlns="http://www.w3.org/2000/svg" id="line" height="512px" viewBox="0 0 64 64" width="512px" class=""><g><path d="m61.337 37.059a11.373 11.373 0 0 1 -6.461-15.6 1 1 0 0 0 -1.333-1.332 11.375 11.375 0 0 1 -15.6-6.461 1 1 0 0 0 -1.885 0 11.374 11.374 0 0 1 -15.6 6.461 1 1 0 0 0 -1.332 1.332 11.373 11.373 0 0 1 -6.461 15.6 1 1 0 0 0 0 1.885 11.373 11.373 0 0 1 6.461 15.6 1 1 0 0 0 1.332 1.333 11.371 11.371 0 0 1 15.6 6.461 1 1 0 0 0 1.885 0 11.372 11.372 0 0 1 15.6-6.461 1 1 0 0 0 1.333-1.333 11.373 11.373 0 0 1 6.461-15.6 1 1 0 0 0 0-1.885zm-24.337 11.941a11 11 0 1 1 11-11 11.012 11.012 0 0 1 -11 11z" fill="#c4a2fc" data-original="#C4A2FC" class="active-path" style="fill:#86C4BA" data-old_color="#c4a2fc"/><circle cx="37.002" cy="38.002" fill="#c4a2fc" r="9" data-original="#C4A2FC" class="active-path" style="fill:#86C4BA" data-old_color="#c4a2fc"/><g fill="#151a6a"><path d="m21 13v-9a3 3 0 0 0 -3-3h-4a3 3 0 0 0 -3 3v9a9.011 9.011 0 0 0 -9 9v26a3 3 0 0 0 3 3h22a3 3 0 0 0 3-3v-26a9.011 9.011 0 0 0 -9-9zm-8-9a1 1 0 0 1 1-1h4a1 1 0 0 1 1 1v9h-6zm15 44a1 1 0 0 1 -1 1h-22a1 1 0 0 1 -1-1v-26a7.008 7.008 0 0 1 7-7h10a7.008 7.008 0 0 1 7 7z" data-original="#151A6A" class="" style="fill:#868686" data-old_color="#151A6A"/><path d="m16 28a4 4 0 1 0 4 4 4 4 0 0 0 -4-4zm0 6a2 2 0 1 1 2-2 2 2 0 0 1 -2 2z" data-original="#151A6A" class="" style="fill:#868686" data-old_color="#151A6A"/><path d="m16 27a1 1 0 0 0 1-1v-2a1 1 0 0 0 -2 0v2a1 1 0 0 0 1 1z" data-original="#151A6A" class="" style="fill:#868686" data-old_color="#151A6A"/><path d="m16 37a1 1 0 0 0 -1 1v2a1 1 0 0 0 2 0v-2a1 1 0 0 0 -1-1z" data-original="#151A6A" class="" style="fill:#868686" data-old_color="#151A6A"/><path d="m11.3 28.134-1.732-1a1 1 0 0 0 -1 1.732l1.732 1a1 1 0 1 0 1-1.732z" data-original="#151A6A" class="" style="fill:#868686" data-old_color="#151A6A"/><path d="m23.428 35.134-1.732-1a1 1 0 0 0 -1 1.732l1.732 1a1 1 0 1 0 1-1.732z" data-original="#151A6A" class="" style="fill:#868686" data-old_color="#151A6A"/><path d="m10.3 34.134-1.732 1a1 1 0 0 0 1 1.732l1.732-1a1 1 0 1 0 -1-1.732z" data-original="#151A6A" class="" style="fill:#868686" data-old_color="#151A6A"/><path d="m22.428 27.134-1.732 1a1 1 0 0 0 1 1.732l1.732-1a1 1 0 1 0 -1-1.732z" data-original="#151A6A" class="" style="fill:#868686" data-old_color="#151A6A"/></g></g> </svg>
